<svg xmlns="http://www.w3.org/2000/svg" width="55.263" height="55" fill-rule="evenodd" xmlns:v="https://vecta.io/nano"><path d="M25.915 22.023h3.433l1.655 24.092-3.372 3.794-3.372-3.794 1.654-24.092z" fill="#2f8d46"/><path d="M51.54 54.869c2.057-.006 3.722-1.676 3.722-3.733v-1.81A27.56 27.56 0 0 0 27.7 21.764h0A27.7 27.7 0 0 0 0 49.48v1.785c.001.993.396 1.944 1.099 2.645S2.755 55.003 3.748 55l47.79-.135zm0-.512l-47.79.135A3.23 3.23 0 0 1 .516 51.27v-1.787a27.19 27.19 0 0 1 27.188-27.2h0c14.939 0 27.05 12.111 27.05 27.05v1.81a3.22 3.22 0 0 1-3.212 3.22z" fill="#fff"/><path d="M36.024 23.216A13 13 0 0 1 15.503 8.203a13 13 0 0 1 24.864 5.318 13 13 0 0 1-4.343 9.695" fill="#131417"/><path d="M27.718 0h-.086C21.724-.002 16.527 3.906 14.89 9.583s.68 11.752 5.682 14.896 11.481 2.599 15.887-1.338l.063-.057c4.055-3.666 5.443-9.445 3.496-14.552S33.188.036 27.722 0zm8.4 22.759c4.583-4.096 5.588-10.879 2.391-16.128S28.823-.836 23.081 1.357s-9.099 8.173-7.982 14.217S21.488 26.003 27.634 26a12.74 12.74 0 0 0 8.486-3.241z" fill="#fff"/></svg>