<svg xmlns="http://www.w3.org/2000/svg" width="56.295" height="56.293" fill-rule="evenodd" xmlns:v="https://vecta.io/nano"><path d="M31.102.343c-.023-.114-.117-.2-.233-.211-1.81-.175-3.634-.175-5.444 0-.116.011-.21.097-.233.211l-.851 4.145c-1.614.26-3.197.684-4.725 1.266l-2.809-3.163c-.077-.087-.201-.113-.307-.065a28.14 28.14 0 0 0-4.714 2.722c-.096.067-.137.189-.1.3l1.334 4.017a24 24 0 0 0-3.459 3.459L5.544 11.69c-.111-.037-.233.004-.3.1a28.12 28.12 0 0 0-2.716 4.708c-.048.106-.022.23.065.307l3.163 2.809c-.583 1.528-1.008 3.111-1.268 4.725l-4.144.851c-.114.023-.2.117-.211.233a28.21 28.21 0 0 0 0 5.444c.011.116.097.21.211.233l4.144.851a23.97 23.97 0 0 0 1.268 4.725l-3.163 2.809c-.087.077-.113.201-.065.307a28.12 28.12 0 0 0 2.722 4.714c.067.096.189.137.3.1l4.017-1.335a24 24 0 0 0 3.459 3.459l-1.334 4.017c-.037.111.004.233.1.3a28.14 28.14 0 0 0 4.714 2.722c.106.048.23.022.307-.065l2.809-3.163c1.528.583 3.111 1.008 4.725 1.268l.851 4.145c.023.114.117.2.233.211a28.21 28.21 0 0 0 5.444 0c.116-.011.21-.097.233-.211l.851-4.145a23.97 23.97 0 0 0 4.725-1.268l2.809 3.158c.077.087.201.113.307.065a28.12 28.12 0 0 0 4.714-2.722c.096-.067.137-.189.1-.3l-1.335-4.017a24 24 0 0 0 3.459-3.459l4.009 1.332c.111.037.233-.004.3-.1a28.15 28.15 0 0 0 2.721-4.714c.048-.106.022-.23-.065-.307l-3.163-2.809a24 24 0 0 0 1.268-4.725l4.144-.851c.114-.023.2-.117.211-.233a28.13 28.13 0 0 0 0-5.444c-.011-.116-.097-.21-.211-.233l-4.144-.851a24 24 0 0 0-1.268-4.725l3.163-2.809c.087-.077.113-.201.065-.307-.753-1.656-1.664-3.234-2.721-4.714-.067-.096-.189-.137-.3-.1L46.73 13.01a23.99 23.99 0 0 0-3.459-3.459l1.335-4.017c.037-.111-.004-.233-.1-.3a28.12 28.12 0 0 0-4.714-2.722c-.106-.048-.23-.022-.307.065L36.676 5.74c-1.528-.582-3.111-1.007-4.725-1.268L31.1.328zm-.476.3l.849 4.132c.022.108.11.191.219.208a23.45 23.45 0 0 1 4.968 1.331c.103.04.22.012.293-.071l2.8-3.154a27.62 27.62 0 0 1 4.29 2.477l-1.331 4c-.035.105-.001.221.085.29 1.342 1.075 2.562 2.295 3.637 3.637.069.087.185.121.29.086l4-1.331a27.58 27.58 0 0 1 2.477 4.29l-3.154 2.8c-.083.073-.111.19-.071.293a23.42 23.42 0 0 1 1.334 4.967c.017.109.1.197.208.219l4.132.849a27.59 27.59 0 0 1 0 4.953l-4.132.849c-.108.022-.191.11-.208.219a23.42 23.42 0 0 1-1.331 4.968c-.04.103-.012.22.071.293l3.154 2.8c-.695 1.501-1.524 2.937-2.477 4.29l-4-1.331c-.105-.035-.221-.001-.29.086-1.075 1.342-2.295 2.561-3.637 3.636-.086.069-.12.185-.085.29l1.331 4c-1.353.952-2.789 1.781-4.29 2.477l-2.8-3.154c-.073-.082-.19-.11-.293-.07a23.45 23.45 0 0 1-4.968 1.331c-.109.017-.197.1-.219.208l-.85 4.135a27.68 27.68 0 0 1-4.953 0l-.849-4.132c-.022-.108-.11-.191-.219-.208-1.7-.26-3.366-.707-4.968-1.331-.103-.04-.22-.012-.293.07l-2.8 3.154c-1.501-.696-2.936-1.525-4.289-2.477l1.331-4c.035-.105.001-.221-.086-.29-1.342-1.075-2.561-2.294-3.636-3.636-.069-.087-.185-.121-.29-.086l-4 1.331c-.952-1.353-1.781-2.789-2.477-4.29l3.154-2.8c.082-.073.11-.19.07-.293-.624-1.602-1.071-3.268-1.331-4.968-.017-.109-.1-.197-.208-.219l-4.132-.849a27.69 27.69 0 0 1 0-4.953l4.132-.849c.108-.022.191-.11.208-.219.26-1.7.707-3.366 1.331-4.968.04-.103.012-.22-.07-.293l-3.154-2.8a27.62 27.62 0 0 1 2.477-4.29l4 1.331c.105.035.221.001.29-.086a23.45 23.45 0 0 1 3.636-3.637c.087-.069.121-.185.086-.29l-1.331-4c1.353-.952 2.789-1.781 4.29-2.477l2.8 3.154c.073.083.19.111.293.071a23.45 23.45 0 0 1 4.968-1.331c.109-.017.197-.1.219-.208l.849-4.132a27.68 27.68 0 0 1 4.953 0zm-2.479 21.655a5.84 5.84 0 0 0-4.13 9.97 5.84 5.84 0 0 0 9.97-4.13 5.84 5.84 0 0 0-5.84-5.84zm0 .529a5.31 5.31 0 0 1 3.755 9.066 5.31 5.31 0 0 1-9.066-3.755 5.31 5.31 0 0 1 5.311-5.311z" fill="#fff"/><path d="M28.147 17.372c5.949 0 10.771 4.822 10.771 10.771s-4.822 10.771-10.771 10.771-10.771-4.822-10.771-10.771a10.77 10.77 0 0 1 10.771-10.771z" fill="#2f8d46"/><path d="M32.558 28.143l-6.836 4.134v-8.268z" fill="#131417"/></svg>