<svg xmlns="http://www.w3.org/2000/svg" width="50" height="55.436" xmlns:v="https://vecta.io/nano"><g fill="#fff" fill-rule="evenodd"><path d="M50 31.34a.26.26 0 0 0-.26-.26h-6.147a.26.26 0 0 0-.26.26v20.764c0 1.84 1.491 3.331 3.331 3.332h0a3.33 3.33 0 0 0 3.331-3.331V31.34zm-.521.26v20.5a2.81 2.81 0 0 1-2.811 2.811h0a2.81 2.81 0 0 1-2.811-2.811V31.6z"/><path d="M43.848 51.906V.26a.26.26 0 0 0-.26-.26H.26A.26.26 0 0 0 0 .26v50.97a4.2 4.2 0 0 0 4.2 4.2h42.462a.261.261 0 1 0 0-.521H4.205c-.977 0-1.914-.388-2.605-1.079S.521 52.202.521 51.225V.515h42.807V51.9a.261.261 0 1 0 .521 0zM6.865 18.115h16.862a.261.261 0 1 0 0-.521H6.865a.261.261 0 1 0 0 .521zm0 2.551H27.72a.261.261 0 1 0 0-.521H6.865a.261.261 0 1 0 0 .521zm0 2.551h6.959a.261.261 0 1 0 0-.521H6.865a.261.261 0 1 0 0 .521z"/></g><path d="M22.054 28.2c5.827 0 10.551 4.724 10.551 10.551s-4.723 10.551-10.55 10.551-10.551-4.723-10.552-10.55S16.227 28.201 22.054 28.2z" fill="#2f8d46" fill-rule="evenodd"/><path d="M17.763 42.731l-1.369-6.216 3.545 1.562 2.241-4.139 2.31 4.139 3.389-1.544-1.336 6.247-8.781-.048z" fill="#131417" fill-rule="evenodd"/><path d="M27.98 6.487a.26.26 0 0 0-.26-.26H6.865a.26.26 0 0 0-.26.26v7.8a.26.26 0 0 0 .26.26H27.72a.26.26 0 0 0 .26-.26zm-.521.26v7.282H7.126V6.747z" fill="#fff" fill-rule="evenodd"/></svg>