<svg xmlns="http://www.w3.org/2000/svg" xmlns:xlink="http://www.w3.org/1999/xlink" width="47.5" height="52.324" xmlns:v="https://vecta.io/nano"><style><![CDATA[.B{fill-rule:evenodd}]]></style><path d="M32.122 32.083L47.5 13.016 43.649 9.91 28.271 28.977zm-4-2.338l-.578 3.984 4.005-1.289z" fill="#2f8d46" class="B"/><g fill="#fff" class="B"><path d="M39.021.246c0-.136-.11-.246-.246-.246H.246C.11 0 0 .11 0 .246v51.833c0 .136.11.246.246.246h38.529c.136 0 .246-.11.246-.246zm-.491.246v51.342H.491V.491z"/><use xlink:href="#B"/><path d="M6.594 43.441h25.587c.13-.008.23-.116.23-.245s-.101-.237-.23-.245H6.594c-.13.008-.23.116-.23.245s.101.237.23.245z"/><use xlink:href="#B" y="8.423"/><use xlink:href="#B" y="17.038"/><use xlink:href="#B" y="25.461"/></g><defs ><path id="B" d="M6.594 10.153h25.587c.091.006.179-.04.226-.118s.047-.177 0-.255-.135-.124-.226-.118H6.594c-.091-.006-.179.04-.226.118s-.047.177 0 .255.135.124.226.118z"/></defs></svg>